PathFileType	4	(X/Y/Z)	C:\Users\Basilio\Documents\Thesis Gigler\squatting_fais\c3dfiles\076\SLS_back_pre1\markers_experimental.trc
DataRate	CameraRate	NumFrames	NumMarkers	Units	OrigDataRate	OrigDataStartFrame	OrigNumFrames
200.000000	200.000000	4	61	mm	200.000000	2022	2311
Frame#	Time	FHD			LBHD			RBHD			C7			T10			CLAV			LSHO			LUUPA			LMUPA			LDUPA			LLEP			LMEP			LRAD			LUL			LRFIN			RSHO			RUPA1			RMUPA			RDUPA			RLEP			RMEP			RRAD			RUL			RUFIN			LASI			RASI			USACR			LSACR			RSACR			LTHI1			LTHI2			LTHI3			LTHI4			LLFC			LMFC			LTIB1			LTIB2			LTIB3			LTIB4			LLMAL			LMMAL			LHEE			LMT1			LMT2			LMT5			RTHI			RTHI2			RTHI3			RTHI4			RLFC			RMFC			RTIB1			RTIB2			RTIB3			RTIB4			RLMAL			RMMAL			RHEE			RMT1			RMT2			RMT5			
		X1	Y1	Z1	X2	Y2	Z2	X3	Y3	Z3	X4	Y4	Z4	X5	Y5	Z5	X6	Y6	Z6	X7	Y7	Z7	X8	Y8	Z8	X9	Y9	Z9	X10	Y10	Z10	X11	Y11	Z11	X12	Y12	Z12	X13	Y13	Z13	X14	Y14	Z14	X15	Y15	Z15	X16	Y16	Z16	X17	Y17	Z17	X18	Y18	Z18	X19	Y19	Z19	X20	Y20	Z20	X21	Y21	Z21	X22	Y22	Z22	X23	Y23	Z23	X24	Y24	Z24	X25	Y25	Z25	X26	Y26	Z26	X27	Y27	Z27	X28	Y28	Z28	X29	Y29	Z29	X30	Y30	Z30	X31	Y31	Z31	X32	Y32	Z32	X33	Y33	Z33	X34	Y34	Z34	X35	Y35	Z35	X36	Y36	Z36	X37	Y37	Z37	X38	Y38	Z38	X39	Y39	Z39	X40	Y40	Z40	X41	Y41	Z41	X42	Y42	Z42	X43	Y43	Z43	X44	Y44	Z44	X45	Y45	Z45	X46	Y46	Z46	X47	Y47	Z47	X48	Y48	Z48	X49	Y49	Z49	X50	Y50	Z50	X51	Y51	Z51	X52	Y52	Z52	X53	Y53	Z53	X54	Y54	Z54	X55	Y55	Z55	X56	Y56	Z56	X57	Y57	Z57	X58	Y58	Z58	X59	Y59	Z59	X60	Y60	Z60	X61	Y61	Z61	

2023	10.11	-199.420883178711	1644.492431640625	-1031.846435546875	-327.5113220214844	1564.503540039063	-1135.37646484375	-321.6831665039063	1568.268188476563	-983.7583007812502	-370.0080566406251	1447.407104492188	-1057.305053710938	-399.7673339843751	1130.864013671875	-1042.699340820313	-237.585922241211	1369.115478515625	-1054.36474609375	-304.3849182128907	1379.999877929688	-1233.225341796875	-300.4362792968751	1175.889892578125	-1287.187255859375	-266.0152893066407	1152.072875976563	-1260.817749023438	-295.7708435058594	1107.223754882813	-1292.1494140625	-308.0873413085938	1051.447387695313	-1292.47802734375	-342.1291503906251	1039.033569335938	-1218.089111328125	-191.2059326171875	836.3161621093752	-1245.318115234375	-228.4118041992188	821.099548339844	-1296.6962890625	-154.9337615966797	758.3493041992189	-1257.399047851563	-301.3451538085938	1381.720703125	-884.6356201171877	-317.6548767089844	1184.115844726563	-803.3780517578127	-272.2531433105469	1165.091674804688	-807.6638793945315	-305.6362304687501	1114.973999023438	-798.4251708984377	-285.4840393066407	1054.97705078125	-796.1755371093752	-303.3946533203126	1038.432983398438	-873.8045043945315	-173.2218933105469	836.8591308593752	-816.9438476562502	-218.0118713378907	831.5529785156252	-767.5167846679689	-143.8116149902344	768.322204589844	-787.7362060546877	-242.2264099121094	943.0366210937502	-1135.957275390625	-238.5138244628907	954.757995605469	-919.832702636719	-405.7456665039064	1023.55859375	-1026.935668945313	-414.6539611816407	993.4063110351565	-1052.690795898438	-413.2655334472657	995.5270996093752	-996.4485473632815	-331.0612487792969	783.5440673828127	-1187.029052734375	-304.1312561035157	703.8860473632814	-1180.84228515625	-255.3490447998047	706.8939819335939	-1177.470703125	-331.1826782226563	653.9981079101564	-1158.062133789063	-323.8528137207032	495.400115966797	-1121.996215820313	-277.4820861816407	498.9859924316407	-1012.724792480469	-293.7513732910157	354.2803955078126	-1041.77392578125	-325.9470825195313	296.4910278320313	-1100.309936523438	-294.1120605468751	300.7750549316407	-1065.728149414063	-313.9117431640626	229.5995025634766	-1023.729187011719	-382.7417297363282	105.8165969848633	-1058.646850585938	-352.8923339843751	125.0070724487305	-981.4281005859377	-442.2769470214845	97.79042053222659	-1007.967895507813	-242.0028228759766	52.49901199340822	-993.9768066406252	-236.4048614501954	48.64976119995119	-1032.722900390625	-260.1378479003907	42.42974853515626	-1082.386840820313	-269.6843261718751	716.3720703125001	-818.3880004882815	-218.541732788086	671.7260742187501	-812.4233398437502	-186.9237823486328	680.8784179687501	-822.7468261718752	-229.4983367919922	588.4208984375001	-816.926208496094	-226.7877197265626	543.1403808593751	-821.3679809570315	-201.8506469726563	523.1400756835939	-931.9908447265627	-303.6299133300782	438.2438964843751	-849.685241699219	-408.5101013183595	468.1023559570314	-847.9887695312502	-389.7940673828126	424.9096984863282	-851.9666748046877	-417.9939575195314	391.9599609375001	-892.1989746093752	-571.1022949218751	386.0860290527345	-889.0567016601565	-532.3233642578126	372.2978820800782	-964.6213378906252	-601.9870605468751	433.6165466308595	-940.1662597656252	-549.3624267578126	236.0547637939454	-963.4720458984377	-553.8400268554689	227.6273345947266	-918.2751464843752	-592.7604980468751	244.9126586914063	-872.477233886719	
2024	10.115	-199.7221984863282	1644.66064453125	-1031.667724609375	-327.8416748046876	1564.597290039063	-1135.178344726563	-321.8830261230469	1568.317626953125	-983.5169677734377	-370.2470703125001	1447.42578125	-1057.322631835938	-399.6461181640626	1130.805541992188	-1042.833862304688	-237.7676544189454	1369.211059570313	-1054.22607421875	-304.3985900878907	1380.034423828125	-1233.199340820313	-300.8253784179688	1175.880859375	-1287.137573242188	-266.6081237792969	1152.053344726563	-1260.692016601563	-296.3177795410157	1107.18115234375	-1291.97021484375	-308.6993408203126	1051.433471679688	-1292.232421875	-342.8429260253907	1039.2919921875	-1217.990600585938	-192.7608642578126	835.8916015625002	-1245.251220703125	-230.0467987060547	820.9228515625002	-1296.611450195313	-156.9641571044922	757.6699829101564	-1257.329345703125	-301.6893920898438	1381.694091796875	-884.541198730469	-318.3768920898438	1184.1064453125	-803.2241210937502	-272.9869079589844	1165.08642578125	-807.2817382812502	-306.4077453613282	1115.05224609375	-798.191345214844	-286.1936645507813	1054.979736328125	-795.9212036132815	-304.0697021484376	1037.890258789063	-873.7276611328127	-174.0606384277344	836.7761840820315	-815.9089965820315	-218.9761047363282	831.5762329101565	-766.7560424804689	-144.7313232421875	768.217956542969	-786.7008056640627	-242.0655670166016	943.1133422851565	-1135.94384765625	-238.6730346679688	954.8186035156252	-919.695007324219	-405.5852966308595	1023.478271484375	-1027.19287109375	-414.4745178222657	993.3912353515627	-1052.959228515625	-413.2479858398439	995.4298095703127	-996.5876464843752	-330.7039489746094	783.6047363281252	-1186.945678710938	-303.9895629882813	703.9736328125001	-1180.42724609375	-255.4200286865235	706.7404174804689	-1177.194091796875	-331.6812744140626	654.2627563476564	-1157.970336914063	-324.6931762695313	495.4644775390626	-1121.743408203125	-278.3057250976563	499.016571044922	-1012.441284179688	-294.3895874023438	354.3632812500001	-1041.477172851563	-326.4143371582032	296.5907897949219	-1100.142700195313	-294.6805725097657	300.9237976074219	-1065.475952148438	-314.2926940917969	229.6927642822266	-1023.478332519531	-382.7298583984376	105.7886734008789	-1058.53466796875	-353.0695495605469	124.871322631836	-981.3288574218752	-442.2112731933595	97.72904205322268	-1007.890197753906	-241.9846343994141	52.48539352416994	-993.9582519531252	-236.3522491455079	48.60807037353517	-1032.704223632813	-260.0367431640626	42.37212371826173	-1082.335205078125	-269.4485168457032	716.5697021484376	-818.3697509765627	-218.3593750000001	672.0403442382814	-812.1694946289065	-186.5856018066407	681.2282104492189	-822.959167480469	-228.9683837890626	588.7404174804689	-816.8089599609377	-226.2646636962891	543.4351196289064	-821.1710205078127	-202.2999725341797	523.5969238281251	-931.957458496094	-302.8639831542969	438.441131591797	-849.4912109375002	-407.875701904297	468.0721435546876	-847.7836914062502	-389.0957641601564	424.9846801757814	-851.793884277344	-417.1224975585939	391.8592834472657	-892.159606933594	-570.1895751953126	385.9883728027345	-888.8093872070315	-531.5225219726564	372.0811462402344	-964.3550415039065	-601.2258911132814	433.343231201172	-939.931579589844	-548.4013061523439	235.9475708007813	-963.1172485351565	-552.8408813476564	227.4367218017579	-918.0124511718752	-591.8919067382814	244.7474822998047	-872.169372558594	
2025	10.12	-199.908432006836	1644.649169921875	-1031.439819335938	-328.0230712890626	1564.609741210938	-1135.091064453125	-322.1300048828126	1568.392456054688	-983.4588012695315	-370.4549865722657	1447.407348632813	-1057.254272460938	-399.6806945800782	1130.783447265625	-1042.990356445313	-237.9432525634766	1369.320190429688	-1054.122802734375	-304.3997192382813	1380.084350585938	-1233.154052734375	-301.1780395507813	1175.830688476563	-1287.014404296875	-267.0148010253907	1151.933837890625	-1260.580810546875	-296.8934631347657	1107.082885742188	-1291.878662109375	-309.4203186035157	1051.406005859375	-1292.033935546875	-343.5252380371094	1039.427978515625	-1217.786499023438	-194.4331512451172	835.525085449219	-1245.02783203125	-231.5027618408204	820.7012939453127	-1296.54296875	-158.6770935058594	757.2036743164064	-1257.047485351563	-302.0879821777344	1381.679443359375	-884.4852294921877	-319.0731506347657	1184.09326171875	-803.1057128906252	-273.6484985351563	1164.957885742188	-807.023864746094	-307.1188049316407	1115.003540039063	-798.0274658203127	-286.9467163085938	1054.954345703125	-795.6379394531252	-304.4448852539063	1038.096435546875	-873.3350830078127	-174.9175567626953	836.6580810546877	-815.0690917968752	-220.0270690917969	831.4920043945315	-766.0314331054689	-145.8163146972657	768.017761230469	-785.5128173828127	-241.7921447753907	943.1729125976565	-1135.981811523438	-238.8912048339844	954.8921508789065	-919.5661621093752	-405.496063232422	1023.455627441406	-1027.366455078125	-414.3339233398439	993.337341308594	-1053.12548828125	-413.1937255859376	995.4212646484377	-996.7664794921877	-332.0952148437501	784.0923461914065	-1187.25537109375	-303.9827575683594	704.0964355468751	-1180.080810546875	-255.4629821777344	706.6456298828126	-1176.959838867188	-331.8184204101563	654.3352661132814	-1157.804931640625	-325.4191284179688	495.583465576172	-1121.40869140625	-278.8053588867188	499.1864013671876	-1012.260437011719	-294.9185791015626	354.3626708984376	-1041.016723632813	-327.2307739257813	296.6134338378907	-1099.722290039063	-295.1587219238282	301.0981445312501	-1065.317504882813	-314.6575012207032	229.773666381836	-1023.273803710938	-382.8280334472657	105.7994842529297	-1058.45458984375	-353.2367553710938	124.7278213500977	-981.1677246093752	-442.5996093750001	97.82663726806643	-1008.001892089844	-241.9802703857422	52.42442703247072	-993.925476074219	-236.3971099853516	48.68899154663087	-1032.711547851563	-260.0394897460938	42.4205436706543	-1082.34033203125	-269.2337036132813	716.7542114257814	-818.335388183594	-218.2669677734376	672.2665405273439	-812.032165527344	-186.497055053711	681.5042724609376	-822.7374267578127	-228.4476623535157	588.9820556640626	-816.684509277344	-225.7393341064454	543.6393432617189	-821.0215454101565	-200.6583709716797	523.4998168945314	-931.5957641601565	-302.1688842773438	438.5683593750001	-849.191589355469	-407.2266235351564	468.1725463867189	-847.6116943359377	-388.2691040039064	425.1430969238282	-851.508972167969	-416.2578430175782	391.7860107421876	-891.9744262695315	-569.4949340820314	385.8900756835939	-888.6177368164065	-530.8107299804689	371.9651184082032	-964.1538085937502	-600.4102172851564	433.1112060546876	-939.7056884765627	-547.6295166015626	235.7108001708985	-962.8583984375002	-551.8989868164064	227.2721862792969	-917.6892089843752	-590.9314575195314	244.5859985351563	-871.912292480469	
2026	10.125	-200.1180572509766	1644.772094726563	-1031.252319335938	-328.3655395507813	1564.527709960938	-1134.967895507813	-322.4629211425782	1568.430297851563	-983.309265136719	-370.7322692871094	1447.42529296875	-1057.153930664063	-399.5758361816407	1130.700561523438	-1043.11181640625	-238.1341857910157	1369.3671875	-1053.884765625	-304.4197998046876	1380.161987304688	-1233.103515625	-301.5180969238282	1175.775390625	-1286.880615234375	-267.4147033691407	1151.796630859375	-1260.413940429688	-297.2696838378907	1107.070434570313	-1291.702880859375	-309.9566345214844	1051.454956054688	-1291.895141601563	-344.3164978027344	1039.579711914063	-1217.723510742188	-195.7795562744141	835.0352783203127	-1244.800903320313	-232.9568786621094	820.367370605469	-1296.33837890625	-160.4040985107422	756.6419677734376	-1256.746337890625	-302.5165405273438	1381.590576171875	-884.3865356445315	-319.7450866699219	1184.063720703125	-802.9843750000002	-274.2675170898438	1164.933349609375	-806.7813720703127	-307.8262634277344	1114.87060546875	-797.863220214844	-287.6404724121094	1054.965087890625	-795.2351074218752	-304.8552856445313	1038.113159179688	-872.950134277344	-175.6724243164063	836.5396728515627	-814.292907714844	-221.0617370605469	831.394714355469	-765.2559814453126	-146.7704620361328	767.8433837890626	-784.621765136719	-241.6091766357422	943.2400512695315	-1135.912719726563	-239.0598754882813	954.979919433594	-919.4277954101565	-405.3730468750001	1023.347106933594	-1027.607666015625	-414.1343688964845	993.267761230469	-1053.357299804688	-413.1909484863282	995.370056152344	-996.9856567382815	-332.1092834472657	784.250915527344	-1187.424438476563	-304.1254882812501	704.0716552734376	-1179.89990234375	-255.4905242919922	706.5743408203126	-1176.72900390625	-332.1841430664063	654.5075073242189	-1157.711791992188	-326.2151184082032	495.6697998046876	-1121.0947265625	-279.0855102539063	499.2562866210939	-1012.24560546875	-295.5369567871094	354.3766784667969	-1040.660766601563	-327.5143127441407	296.8519897460938	-1099.740844726563	-295.5648803710938	301.1748962402344	-1065.043823242188	-314.6804504394532	230.2297058105469	-1022.821472167969	-382.9811401367188	105.8324737548828	-1058.35986328125	-353.3566894531251	124.6868972778321	-981.044372558594	-442.5897521972657	97.7738952636719	-1007.999572753906	-241.9795837402344	52.41530609130861	-993.9155883789065	-236.4410247802735	48.74500274658205	-1032.727172851563	-260.0953979492188	42.43644332885743	-1082.349609375	-268.9557495117188	716.9279785156251	-818.2954101562502	-218.6935272216797	672.7778930664064	-807.8447265625002	-190.0682525634766	679.0275878906251	-818.864685058594	-227.9716033935547	589.1130371093751	-816.5383300781252	-225.1740264892579	543.8980102539064	-820.8225097656252	-200.3748474121094	523.8822631835939	-931.434265136719	-301.3640441894532	438.8116760253907	-848.8555908203127	-406.588104248047	468.1763000488282	-847.4637451171877	-387.4116210937501	425.2618713378907	-851.2677001953127	-415.5288391113282	391.7059631347657	-891.7196044921877	-568.7795410156251	385.7160949707032	-888.5185546875002	-529.9221801757814	371.7967834472657	-963.9432373046877	-599.6357421875001	432.9061584472657	-939.5688476562502	-546.4963989257814	235.3735046386719	-962.4550781250002	-550.9187011718751	227.0742950439454	-917.5192871093752	-590.0588378906251	244.3888854980469	-871.656677246094	
